<svg id="Layer_1" data-name="Layer 1" xmlns="http://www.w3.org/2000/svg" viewBox="0 0 2320.2 1106.2"><title>Artboard 1</title><rect x="-42.9" y="-28.7" width="2406.6" height="1166.4" style="fill:#338ec9"/><polygon points="1105.8 695.2 1106 691.6 1107.2 689.5 1109.9 687.7 1107.2 684.9 1105 686.3 1102 689.9 1103.9 696.1 1105.8 695.2" style="fill:#2083c4"/><polygon points="595.7 1092.4 590.1 1086.5 586 1082.8 593.7 1100.4 593.6 1100.4 585.9 1082.8 581.1 1081.9 576.8 1085.2 575.6 1094.2 566.1 1091.4 549.1 1084.5 561.8 1093.4 579.8 1102 599.3 1106.4 603.4 1104 604 1100.6 600.2 1100.4 600.3 1100.4 604.1 1100.6 608.4 1103.4 614 1103 615.1 1099.1 605.7 1097.1 595.7 1092.4" style="fill:#2083c4"/><polygon points="1457.8 1050.6 1453.1 1059.9 1463.1 1059.4 1461 1053.2 1457.8 1050.6" style="fill:#2083c4"/><polygon points="1993.9 987.3 1989.9 986.6 1987.4 990.3 1986.7 997.3 1984 1002.6 1983.3 1009.5 1996.8 1004.6 1997.6 1006.8 2007 997.6 2012.9 988 1998.6 990.1 1993.9 987.3" style="fill:#2083c4"/><polygon points="2105.2 864.3 2105.2 857.6 2095.3 842.6 2096.2 833.8 2092.1 831.5 2088.8 833.3 2086.5 817.1 2071.3 805.2 2070.2 799.6 2069.1 775.9 2070.5 772.2 2065.7 765.4 2060.5 768.5 2059.2 762.3 2060 754.6 2057.9 750.4 2054.9 736.6 2051.8 739.7 2047.1 751 2044.4 761.7 2043.9 772.9 2034.3 792.2 2029 795 1998.9 772.5 2004.7 761.9 2004.3 758.6 2012.6 750.5 2009.8 746.4 2000.7 749.7 1988.4 745.9 1980.3 740.4 1976.3 741.6 1981.3 744.3 1980.9 748.5 1971 749.1 1966.2 752 1955.3 767.7 1956.2 772.3 1947.2 771.5 1939.1 762.8 1928.1 768.5 1917.4 777.3 1915.5 783.6 1912.6 781.8 1909.7 785.8 1911.6 789.7 1908.2 791.4 1906.3 784.2 1900.1 791.3 1898.2 799.1 1886 811.4 1866.1 817.1 1859.9 820.2 1848.7 822.9 1838.2 829.2 1834.1 834.9 1834.7 828.6 1830.7 834.6 1825.2 850.5 1828.5 862.2 1827.6 866.5 1823.3 860.9 1823.3 881.7 1826.2 892.8 1824.5 897.5 1825.1 910.6 1824.2 915.5 1818.6 926.1 1814.7 927.2 1812.8 932 1821.2 938.9 1830.8 939.2 1841.5 934.5 1847.4 930 1857.7 928.7 1863.2 930.2 1873.8 929.3 1880.8 921.6 1896.6 915.4 1903.1 915.9 1922.3 910.2 1935.1 909.4 1940.3 913.4 1945.1 913.6 1952 918.6 1954 929.7 1951.8 934.1 1955.7 937.6 1961.3 930.9 1966.9 928 1975.7 920.9 1973.6 927.1 1960.1 940.7 1967 939.2 1973 933.4 1971.8 939.6 1967.6 943.7 1973.8 944.7 1973.1 958.8 1974.8 964 1991.5 970.6 2005.4 962.9 2001.9 967.3 2008.8 972.5 2028.1 962.2 2035.9 961.9 2041.4 959 2051.5 944.2 2056.3 940 2072 922.2 2079.1 918.1 2089.7 904.6 2091.6 899.9 2102.5 881.3 2101.6 874.2 2105.2 864.3" style="fill:#2083c4"/><polygon points="459.6 450.6 458.7 438.9 454.3 443.8 459.6 450.6" style="fill:#2083c4"/><polygon points="464.5 427.6 463.7 431.9 467 427.1 464.5 427.6" style="fill:#2083c4"/><polygon points="453.1 425.5 453.1 428.6 461.1 427.2 453.1 425.5" style="fill:#2083c4"/><path d="M753.7,690.7l-12-2.7-9.5-9.3-10.9-6.9-11,.3L696,667.7l-8.5,2.6,1.2-4.6-3.6-4.9-21.5-8.1-5.5,5.5-.3-8.3-13-1.3-2.3-2.5,5.5-6.8-.2-5.7-3.9-1.4-5.6-19.1-2.4.4.1-.2-1.2-3.3-7.6-7-5.3-2-2.5-.9-4,7.1.5,5.7,2.7,4.9v.1l-2.8-4.9-.5-5.7,4-7.1-7.8-2.2-5.9.6-.8,1.5-8.7-1.7-1.4,7.5-5.6,8.4,6.4,10.7,4.4,7.2,3.8.7v.1l-4-.7-1.8.3L585,637.5l-8.1-4.3-2.3-8,3.4-10-4.7-10.7-3.5.4-.1-.1,3.8-.4,4.7,10.7-3.4,10,2.3,8,8.1,4.3,12.9-4.9,1.8-.3-4.4-7.2-6.4-10.7,5.6-8.4,1.4-7.5-2.8-2.9-6.6-8.5-4.3-5.4-4.7-3.1h0l-2.7-1.9-3.8.2-.9-6.7-5.4-4.1-5.8-.6-2.3-3.9,6.3-2.5-17.8.6-4.4,4.7-5.5-1-4-3.7-14.4.8-4.6-7.4-5.1-.1-2.3-5.8-2,6.5-9.3,3.4,2.1,9.2-1.9,6-3.2.5-2.4-6.6,1.7-12.9,4.3-1,.3-1.9h0l1.6-2.8-4.3-2.7L479,554.7l-5.7-.7-9.7,5.7-5,10.7-5.8,5.8-3.8-.3.5,6.1-1.5,2.5-3.4,3.4,2.8,4.4-.8,9.2,1.4,7.6-1.5,4.8,2.6,2-6.1,9.6-3.7.6-4.3,7.8,1,2.6h0l-4.9,3.2-4,1.8.5,3.4-6.7,11.8,1.3,7.5-1.4,2.3,4.5,3.6,2.7-3.9,1.7,3.6-3.8,6.2v.1l-5.7,5.2-2.1,5.8,3.8,7.9-2.2,3.7,11.3,8.8,5.7,9.9,7.8,16.5,8.2,15.3,7,10.9-1,2.4,3.6,6.9,6.1,5.1,13.9,9.1,15.2,8.3,1,3.4,7.7,4.8,3.5-2.1,1.5-4.3,3.6-8.6h0l-3.7,8.9h0l-1.5,4.3-3.5,2.1,2.7,11.7,1.9,13.6-.2,35.8,1.2,16.1-2.4,10.1,2.8,10.2-.7,6.8,4.2,12.4-.2,12.4-2.3,27.1-2.8.3,3.1,9.5,4.3,8.2-1.4,5.7,4.5,26.6,4.6,1.1L524,998l5.2,2.1,2.3,16.6-8.4-2.8,2.6,13.4-3.6,7.2,10.8,2.4-4.5,6.3.3,7.8,6.5,13.8,5.5,5.3.3,4.7,4.2,5,19.5,10.1,10.7,2.4-2.3-7.4,6.6-4.8,5.6.1-21.9-2.3-.1-.1,21.9,2.3,2.8.4-6.1-4.6-5.4-8.3,1.1-3.8,4.6-3.2.7-9.5,6-4.6-.2-7.3-6.8-1.6-8.4-5.9-.1-6.1,3.8-4.1h6.2l-1.4-12.4,3.8-5,5.4-2.5-3.2-4.2-2.9,2.5-5.2-2.4-3.3-8,2-2.1,7.3,3,6.6-1.1,3.3-2.9-2.5-10.3-2.7-5,7.7.8,13.2-1.7,9.1-4.5,4.3-10.8-.5-4.1-5-3.7-.2-5.8L609,934.1l-.4-4.4-.8-15.5.4-8.5.7-6.6,7.7-11.3,16.6-16-.6-6.6-4-4.7.2-.1,4.1,4.8.6,6.6-16.6,16L609,899l-.7,6.6-.4,8.5.8,15.5,5.1,4.6,4.7-.3,7.1,3.6,9,.8,7-4.7,2.1-5.2h0l3.8-4.8,1.9-7.9,9.3-10.4,11.7-31.6-1.3-10.8,5.3-8.2,7.8-6.6,7.8-2.4,4.8-3.7,11-3.2h7.8l1.3-5,5.6-3.6.7-8.6,6.7-10.8.6-11.1,3.9-21.6-1.2-15.6,8.7-13.5,4.3-9.4,13.6-17,2.6-13.7-4-15.6ZM460.3,660.8l-7.8,8.7-8.7,3.3-4.3,7.2-1.2,5.6-4,3.4-9.2-4.4v-.1l9.2,4.4,4-3.4,1.2-5.6,4.3-7.2,8.7-3.3,7.8-8.7,2.2-5.4v.1Zm19.5,65.7h-.2L481,723l.1.1Zm20.1,12.8-.2-12.3.1-.1.1,12.4Zm-4.1-56-6.9,2.8-8.2,5.7-1.3,11.3-4.3,2.4-1.7,5,3.3,7.3h0l-3.4-7.5,1.7-5,4.3-2.4,1.3-11.3,8.2-5.7,6.9-2.8,6.5.4.2.2Zm.5-4.4,4.4-8.4.2.1-4.4,8.3Zm8.9-18-4.3-11.4h0l4.3,11.4Zm1.6-21.1-4.3-.9h0l4.3.9Zm6.7,128.3-2.5,4.1v-.1l2.5-4,.9-15.7h0Zm-7-170.6-4.9-7.1-13.7-.3-5.3-17.4-3.7-.6V572l3.7.6,5.3,17.4,13.7.3,4.9,7.1L519,596l2.5,1.4v.1l-2.5-1.4Zm14.7,22.9h0l-3.6-9.7v-.1Zm.7,8.9-4.5-4.7v-.1l4.5,4.7,2.1,8.4Zm82.2-2.2,2.9.7,3.5-.8,4.2,1.8v-.1l3.2,1.7,4.9.4,3.4-.6-.1.2-3.5.6-4.9-.4-3.2-1.7-4.2-1.8-3.5.8-2.7-.7ZM592.5,783.5l6.6,15.6L597.8,814l-2.1,1.7,2.5,4.6.5,11h-.2L598,820l-2.4-4.4,2.1-1.7L599,799l-6.5-15.5Zm3.1,32.1-.1-.2-.3-2.4h.1Zm-21-53,2.6,10.8-2.1.1,3.5,9.6h-.1l-3.5-9.7,2.1-.1-2.5-10.7ZM551.9,616.8h0l-12.2-2.3-.1-.1ZM537.5,729.2l.3,15-.1-.1-.2-14.9ZM526.4,922.8h0l2,1.4h0Zm14.9,88.5-3.9-2.9h0l3.9,2.9Zm7.7,53.5h0l7.3,2.3v.1Zm36.1-216.9-6-1.3L564.5,833l-1.3-1.8-8.2-.3-2.1,6.7-4.8-6-9.6-2-5.2,7.2.1.1-5,1.1v-.1l4.8-1.1,5.2-7.5,9.6,2,4.8,6,2.1-6.7,8.2.3,1.5,1.9v-.1l14.6,13.6,6,1.3,9.4,6.1,7.7,3.2,1.4,3.7-.1.3-1.4-3.7-7.7-3.2Zm39.7,21.4-5.7,6.4-5.4,1.3-15.6-3.5.1-.3,15.6,3.5,5.4-1.3,5.6-6.3Zm.6-7.5-.2.1v-.3l.9-4.8-2.6-10.6.1-.1,2.7,11ZM641,923.7h0l2.4-3.9h0Z" style="fill:#2083c4"/><polygon points="494.2 89.4 499.6 91.5 505 89.1 497.6 81.9 484.7 87.1 489.2 90.2 494.2 89.4" style="fill:#2083c4"/><polygon points="474.8 59.4 477.7 64.1 486.8 59.7 474.8 59.4" style="fill:#2083c4"/><polygon points="372.6 76.5 390 73.4 393.4 70.4 405.3 65.7 431.7 59.3 427.2 54.6 414.9 54.2 409.5 52.8 391.3 53.8 390.9 57.8 365.6 69.9 373.3 73.5 372.6 76.5" style="fill:#2083c4"/><polygon points="456.3 37.3 463.8 32.6 448.8 33.4 433 37.4 422.5 43.5 431.7 42.5 456.3 37.3" style="fill:#2083c4"/><polygon points="489.1 27.1 487.8 28 502.9 26.8 489.1 27.1" style="fill:#2083c4"/><polygon points="450.3 41.7 435.1 48 440.5 49.2 463.8 48.4 449.9 51.3 447.9 53.4 455.7 53.3 471.7 50.5 489.7 49.5 499.4 43.3 489.7 41.6 492 38.6 488 37.9 480.5 40.2 479.6 46.3 471.7 45.8 468 42 457.3 39.9 450.3 41.7" style="fill:#2083c4"/><polygon points="492.7 32.3 496.8 30.5 477.1 32.1 481.3 34.1 492.7 32.3" style="fill:#2083c4"/><polygon points="552.1 49.5 550.6 45.2 541.7 46.9 535.9 49.8 546.8 52 552.1 49.5" style="fill:#2083c4"/><polygon points="524.1 68.8 529.7 69.1 539.9 64 547.2 62.7 560.3 56.8 552.3 55.2 542 55 526.5 62.9 524.1 68.8" style="fill:#2083c4"/><polygon points="606.5 94.9 600.9 95.9 595.1 103.4 601.4 103 609.4 96.9 606.5 94.9" style="fill:#2083c4"/><polygon points="621.6 58.2 607.9 57.9 605.7 60.3 609.6 64.2 627.4 61.8 621.6 58.2" style="fill:#2083c4"/><polygon points="188.7 207 192.5 216.8 192.2 210.4 201.5 201.4 193 201 188.7 207" style="fill:#2083c4"/><polygon points="644.5 16.1 620 17.3 618.5 20.2 622.4 22.4 618.8 24.4 602.6 28.1 608.9 29.3 611.1 33.2 598 31 595.4 35.4 585 36.9 582.3 39.9 597.5 41 612.7 40 623.6 41.8 640.1 38 646.8 31 662.2 27.2 659.9 22.5 674.5 21.9 689 19.8 701.1 15.2 723.5 10.4 713.8 10.4 743.3 6 744.7 4.7 718.1 2.5 686.6 2.7 684.9 2.2 656.4 3.7 649.9 6.3 641.8 4.7 633 6.5 610.2 8.4 608.9 10.2 618.8 15.8 644.5 16.1" style="fill:#2083c4"/><polygon points="668.3 104.9 664 98.3 656.3 96.7 646.3 92.1 658 88.8 656.9 82.3 654.1 79.5 643.2 76.8 640.7 72.5 630 74 631.4 71 617.9 64.4 611 67.1 599.3 69.1 603.5 64.7 600.5 57.8 585.4 60.5 576.1 65.9 575.9 61.5 583.4 57.2 568.8 59 561.1 61.7 551.8 67.7 547.5 74.6 554.9 74.6 546.9 77.7 549.3 80.1 566.5 83.2 584.6 84.8 594.8 83.9 599.1 81.9 606 84.7 608.7 89 604.1 90.8 613.4 93.2 619.6 102.2 604.4 115.4 581.9 116.5 574.9 121.9 578.1 124.4 595 123.2 596.2 121.1 608.5 128.5 605.3 130.6 610.2 134.2 620.1 138.5 634.1 141.5 626.2 128 637.3 133.9 643.5 135.9 648.1 130.6 641.1 118 637.6 113.8 640.6 109.7 648.2 108.8 653.1 115.8 658.3 118.9 672.3 110.5 676.6 105.4 668.3 104.9" style="fill:#2083c4"/><polygon points="669.2 261.5 673.8 254.3 673.5 244.9 668.6 246.3 672.3 240.4 666.6 237.9 663.1 239.9 658.1 237.7 661.2 234.9 657.5 233.2 652.5 235.9 658.9 228.7 663 221.1 656.6 223.9 651.2 228.5 640.5 241.3 633.6 246.2 635.7 248.4 631.1 253.7 650.7 253.5 656.4 255.5 650.7 259.3 654.5 259.6 664 252.6 662.3 260.3 669.2 261.5" style="fill:#2083c4"/><polygon points="567.3 27.9 556.4 25.2 554.9 31.3 563.4 30.1 567.3 27.9" style="fill:#2083c4"/><polygon points="532.1 28.5 544.1 31.1 545.5 28.5 545.6 25.7 528 22.8 528.9 26.5 522 28.3 532.1 28.5" style="fill:#2083c4"/><polygon points="516.8 48.9 529.8 49.3 540.7 38.3 518.2 40.7 512.6 45.6 521.2 45.1 516.8 48.9" style="fill:#2083c4"/><polygon points="502.5 64.5 492.9 63.7 490.6 65.8 503.8 74.2 514.7 71.6 521.3 65.5 516.4 62.6 524.9 57.5 515.1 58.3 510.7 56.9 501.4 60.1 502.5 64.5" style="fill:#2083c4"/><polygon points="560 41 557 50.5 568.1 52.6 600.9 52.3 606.6 53.1 621.2 47.3 618.2 44.9 600.2 45 591 46.4 572.5 42.6 574.3 38.1 564.8 38.1 561.8 36 552.4 35.6 547.6 38.2 550.9 40.2 560 41" style="fill:#2083c4"/><polygon points="431.6 91.3 450.5 88.5 466.6 91.5 469.7 86.2 478.9 85.6 482.2 82.5 470.2 75.8 476.8 64.4 474 61.7 464.6 61.6 460.9 68.5 455.4 71.3 458.2 64.7 455.9 62.5 446.4 65.9 443.1 62.5 429.5 64.5 435.7 61.7 432 60.4 413.6 64.5 396.8 72.2 403.8 74 411.9 73.9 396.8 76.6 396.8 79.1 415.9 78.7 424.4 80.3 395.6 83.1 396.4 88.6 401.9 87.8 407.2 89.7 406.8 93 431.6 91.3" style="fill:#2083c4"/><polygon points="558.1 33.2 568.9 33.4 558.9 31.5 558.1 33.2" style="fill:#2083c4"/><polygon points="597.1 28.7 619.2 22.5 615.7 20.6 616.5 16.9 604.2 14.7 602.2 11.8 591.8 13.3 575 17.8 574.6 20.4 579.5 28.4 597.1 28.7" style="fill:#2083c4"/><polygon points="555.2 126.1 557 122.6 543.2 113.8 539.6 113.2 528.4 125.7 521 129.4 529.1 128.7 528.2 133 547 125.2 548 128.5 555.7 130.3 562.2 128 555.2 126.1" style="fill:#2083c4"/><polygon points="534 137.4 537.9 139.6 547.2 135.5 540.5 134 534 137.4" style="fill:#2083c4"/><polygon points="613.5 236.6 608 239.1 618.6 241.5 613.5 236.6" style="fill:#2083c4"/><polygon points="204.6 235.8 207.9 243.8 216 247.5 220.1 246.3 220.4 241.8 216.2 238.5 215.5 231.9 199.8 229.9 199.1 234.3 204.6 235.8" style="fill:#2083c4"/><polygon points="598.9 258.3 596.4 263.5 603.6 266.9 610.4 263 599.9 262.2 598.9 258.3" style="fill:#2083c4"/><polygon points="559.8 139.6 557 137.9 553 142.9 559.8 139.6" style="fill:#2083c4"/><polygon points="1801.3 483.2 1798.3 487 1799.6 494.1 1805.9 496.7 1811.6 492.8 1815.1 484.3 1813 481.1 1801.3 483.2" style="fill:#2083c4"/><polygon points="480.2 479.6 464.2 471.9 452.5 461 445.7 461.9 436.9 456 425.1 455.4 410.3 460.6 408.3 463.6 415.1 463.9 420.8 459.6 427.8 460 427.1 463.7 436.3 465 444.7 469 448.8 468.7 459.4 478.5 454 483.1 479.1 481.5 480.2 479.6" style="fill:#2083c4"/><polygon points="1241.5 356 1245.4 355.8 1246.5 356.8 1249.6 356.6 1248.9 355.2 1253.1 351.6 1241.5 356" style="fill:#2083c4"/><polygon points="1237.7 356.4 1239.7 359.8 1243.2 360.9 1249.9 357.5 1249.6 356.8 1246.5 357 1245.4 356 1240.9 356.2 1237.7 356.4" style="fill:#2083c4"/><polygon points="1077.9 173.2 1071.3 177.5 1066 178 1064.1 190.4 1066.9 194.8 1071.6 195.8 1075.4 194.6 1073.5 190.8 1080.6 183.1 1077.9 173.2" style="fill:#2083c4"/><polygon points="1092 189.8 1089.7 185.9 1081 188.5 1082.1 191.7 1088.8 196.1 1092 189.8" style="fill:#2083c4"/><polygon points="2297.2 795.2 2297 798.9 2305.5 798.8 2307.8 794.5 2305.9 792 2297.2 795.2" style="fill:#2083c4"/><polygon points="2309 786.2 2309.2 789.3 2314.2 787.5 2319.3 785.5 2320.3 781.4 2309 786.2" style="fill:#2083c4"/><polygon points="641.8 1073.7 635.7 1071.7 630.1 1076.5 634.5 1080.1 638.5 1076.5 642.3 1079.3 649.9 1076.9 650.8 1074.1 644.5 1070.5 641.8 1073.7" style="fill:#2083c4"/><polygon points="1078.6 297.7 1077.2 290.8 1073.6 302.3 1076.7 303.9 1078.6 297.7" style="fill:#2083c4"/><polygon points="980.5 192 983.9 188.3 984.9 196.1 996.4 202.4 995.4 207 986.2 206.3 984.9 211.5 988.2 215.8 981.6 218.3 987.4 224.5 977.9 232.9 981.2 234.5 985.8 231.4 991.7 232.3 996 228.5 998.9 230.1 1009.7 227.9 1018.2 228 1023.9 223.8 1021.4 219.7 1024.6 217.4 1025.3 212.3 1017.7 210.8 1012.1 198.7 1007.9 197.4 995.8 186.8 1001.4 179.8 1003.1 173.5 990.4 174.5 996.8 166.3 984.9 166.3 980 172.5 977.5 180.5 980.4 184.5 980.5 192" style="fill:#2083c4"/><polygon points="1195.6 357.2 1196.2 354.7 1182 354.1 1178.1 351.3 1177.1 354.9 1185.7 357.9 1195.6 357.2" style="fill:#2083c4"/><polygon points="876 81.3 882.9 77.7 882.2 73.1 891.2 79.7 900.8 78.4 900 72.9 894.1 68.8 887.6 67.1 890.7 65.3 900.2 68.1 900.8 65.1 895.5 60.6 909.9 59.6 912.1 57.3 906.9 54.6 918 54 912.8 48.4 918.2 47.8 918.3 42.3 910.2 38.9 926.2 36.7 921.4 32.6 922.9 25.9 934 17.9 923.5 17.6 938.2 16.6 960.1 11.5 958 9.3 944.9 8.3 922.9 10.3 910.9 12.3 916.8 9.2 913.7 7.4 904.7 9 892.1 7.2 876.3 7.8 874.5 6.9 915.2 6.2 923.9 4.3 898.2 0.5 864.1 0 848.7 0.4 842.2 2.1 827.2 1.9 810.7 4.8 808.6 6.9 817.3 9.7 794.2 5.8 780.5 8.6 776.9 7 737.5 9.2 737.3 11.5 730.3 12.1 711.3 15.9 705.3 18.1 715.8 20.1 712.2 22.2 672.5 27.9 669.7 30.2 678.1 32.7 697.1 34.3 687.2 34.6 673 36.6 682 42.6 717.4 42.3 727.9 46.1 726 48.8 730.7 51.3 735.6 65.3 726.5 71.6 735.6 72.3 745.9 79 731.2 77.3 725.4 85.7 730.8 88 746.6 83.5 739.6 91.9 730.3 94.5 721.2 102.8 723.7 105.3 719.4 110.6 724.2 117.3 722.2 123.9 723.1 128.7 729.3 137.9 730.4 145.2 734.5 149.3 746.1 149.3 752.6 155.5 761 155 770.9 141.4 770.5 135.6 781.7 129.7 786.1 124.9 787.8 119.8 794 115.3 814.3 111.5 827.6 106.4 837.3 98.8 843.6 96.1 849.6 96.1 866 93.7 897 82 876 81.3" style="fill:#2083c4"/><polygon points="491.5 496.7 496.1 498.1 496.1 498.2 496.3 500.5 498 501.8 514.8 495 518.1 496.8 521.1 493.4 515.2 487.6 511.2 487.8 504.2 482.9 498.6 482.9 497.5 484.3 496.8 492 494.9 493.4 494.9 493.3 496.8 491.9 497.5 484.2 491.4 482.9 485.2 484.8 489.6 486.1 492.1 492.9 489.3 494.7 477.4 492.9 480.1 498.2 491.5 496.7" style="fill:#2083c4"/><polygon points="1973.7 680 1971.4 673.7 1963.4 671.3 1954.3 671.6 1952.4 676.2 1967.7 676.6 1973.7 680" style="fill:#2083c4"/><polygon points="1912.2 719.7 1913.6 715.2 1901.9 718.9 1897.5 716.4 1891.6 718.1 1891.4 721.1 1901 722.1 1912.2 719.7" style="fill:#2083c4"/><polygon points="1884 716.8 1877 715.2 1870.8 718.2 1867.9 723 1885.6 720.3 1884 716.8" style="fill:#2083c4"/><polygon points="2029.5 662 2023 662 2014.4 667 2007.9 675.8 2000.5 670.8 1997.7 654.3 1986 651 1982.2 653.7 1972.3 655.7 1975.3 659.8 1981.8 661.3 1984.6 666.2 1995.3 666.2 1982.6 671.2 1988 675.3 1992.2 681.2 1994.6 677.2 2005.2 684.9 2011.2 685.6 2025 692.6 2028.1 699.6 2029.4 708.6 2024.6 710.9 2020.9 717.7 2030.2 717.4 2032.2 715 2039.5 716.7 2045.5 723.7 2047.5 696.6 2048.8 669.5 2041 667.9 2029.5 662" style="fill:#2083c4"/><polygon points="2001.2 699.6 2001.5 695.6 1996.8 699 1997.1 705.3 2001.2 699.6" style="fill:#2083c4"/><polygon points="1896.2 733 1890.9 725.7 1884 727.3 1893.2 733.1 1896.2 733" style="fill:#2083c4"/><polygon points="1917.3 686.7 1911.2 677.1 1912.7 674.2 1906.1 663.6 1912.6 660.4 1919.7 652.9 1906 655.7 1902 659.5 1895.5 652.1 1896.6 645.8 1915.2 644.2 1922.3 645.8 1927.8 644.2 1933.5 636.2 1932.2 634.3 1925.1 640.3 1907.4 639.5 1901.6 637 1895.4 643.2 1888.9 665.7 1885.7 671.1 1887.8 676.8 1890.9 676.9 1891.7 684.9 1889.2 692.5 1892.2 694.9 1896.9 693.7 1897 672.1 1902 669.6 1901.1 677.7 1906.2 682.6 1906.8 688.1 1914.2 684.9 1910.3 691.7 1913 694.6 1917 692.2 1917.3 686.7" style="fill:#2083c4"/><polygon points="1946 674 1938.6 674.4 1939.9 678 1944.9 679.5 1947.7 676.7 1946 674" style="fill:#2083c4"/><polygon points="1954.7 645 1958.5 645.8 1958.8 638.6 1958 635.2 1953.7 634.5 1949.4 639.6 1951.6 650.2 1954.7 645" style="fill:#2083c4"/><polygon points="1928.7 726 1928.8 723.5 1928.2 721.9 1920.7 725.2 1917 734.1 1923.4 732.3 1928.7 726" style="fill:#2083c4"/><polygon points="1818.6 658.9 1822.2 661.2 1823 672.3 1833.8 672.8 1836.3 676.8 1845.1 673.8 1853.9 676.9 1856.6 682 1865.1 678.3 1866.1 681.3 1869.4 668.6 1869.8 660.3 1876.9 654.6 1876.6 647.1 1879 641.4 1887.7 640.4 1879.3 632.7 1880.5 628.9 1874.8 621 1878.7 613.8 1878.9 613.8 1884.2 611 1882.7 606.9 1887.6 606.5 1888 603.2 1876.8 598.4 1876.3 594.8 1869.3 590.6 1866 597.1 1860.4 602.7 1860.1 612.1 1855.2 614.7 1855.2 614.7 1860 612.1 1860.3 602.7 1854.4 607.3 1851.6 610.4 1851.7 610.5 1848.3 615.7 1843.3 622.3 1831.5 625.7 1830.2 632.7 1824.6 634.3 1819.2 631.5 1820.5 637 1820.4 636.9 1819.1 631.3 1814.9 636.8 1815.2 651.8 1818.6 658.9" style="fill:#2083c4"/><polygon points="1823.5 715.5 1844.4 717.4 1852.2 720.7 1860.8 717.5 1852.2 712.6 1841.3 711.1 1839 705.7 1825.6 701.7 1823.8 705.1 1809.8 704.3 1800.2 697.5 1791.3 697 1785.9 704.9 1792.6 705.5 1793.7 709.1 1806.8 712.5 1815.2 712.3 1823.5 715.5" style="fill:#2083c4"/><polygon points="1790.6 683.8 1792.8 673.5 1789.4 668.2 1784 667.5 1780.4 657.1 1773.6 654 1776.6 647.2 1771 643.4 1766.7 636.4 1760.4 630.7 1752.9 630.6 1735.7 612.6 1728.9 604.5 1712.8 602.6 1713.6 606.8 1721.6 616 1727.3 620.7 1731.3 627.8 1738 633 1743 646.6 1749.4 653.5 1766.6 683.2 1775.7 690 1781.5 696.9 1789.7 696.6 1790.6 683.8" style="fill:#2083c4"/><polygon points="957.6 211.4 952 219.7 960.8 220.9 972.1 216.2 977.1 209.1 976.3 203.5 967.9 202 967.9 201.9 976.3 203.4 979.8 198 973.4 193.2 968.3 193.5 969.4 197.7 969.4 197.7 968.3 193.6 963.5 197.2 954.8 203.4 957.6 211.4" style="fill:#2083c4"/><polygon points="909.1 129.6 931.1 123.2 939 117.6 933.3 112.6 935 108 926 107.5 916.5 111.3 909.9 109.3 900.9 113.2 893.2 108.3 884.7 109.4 880 114.1 891.3 115.8 891.2 117.9 881.1 119.3 892.6 122.9 886.5 126.2 909.1 129.6" style="fill:#2083c4"/><polygon points="1120.5 329.9 1100.4 330.8 1099.6 335.1 1118.3 343.5 1120.5 329.9" style="fill:#2083c4"/><polygon points="1071.2 312.1 1071.8 322.1 1080.2 322.1 1080.7 311.2 1076.5 305.3 1069.5 307.4 1071.2 312.1" style="fill:#2083c4"/><polygon points="452.2 499.6 463.6 499.4 454.2 494.4 448.4 496.6 452.2 499.6" style="fill:#2083c4"/><polygon points="1921 377.2 1926.4 379.6 1927.6 387.1 1932.2 390.3 1935.4 386.8 1934.4 372.7 1924.8 366.6 1932.9 366.4 1939.4 362.5 1950.6 360.7 1953.6 366.9 1959.7 370.1 1965.4 360.6 1977.3 360.1 1984.3 356.1 1985.1 350.2 1981.8 346 1981 339.1 1976.4 330.4 1978.1 322 1974.4 315.3 1963.8 304 1957.6 305.5 1957.9 310.6 1964.5 319.9 1965.8 330.1 1957.8 341.8 1951.2 337.8 1951.2 352.8 1943 351.1 1930.4 353.6 1927.9 359.4 1922.8 363.7 1921.4 368.9 1915.9 371.5 1921 377.2" style="fill:#2083c4"/><polygon points="1973.3 290.9 1981.7 288.7 1973.9 279.7 1971.6 283.1 1965.7 281.4 1958.8 278.7 1945.2 270.3 1953.3 287.7 1946.5 288.1 1947.3 294.3 1953.4 302.3 1960.8 302.2 1958.7 293.4 1972.8 298.9 1973.3 290.9" style="fill:#2083c4"/><polygon points="1951.3 367.3 1949.1 364.4 1943.2 362.6 1941.9 366.1 1937.5 365.1 1935.8 370.1 1937.4 374 1942.9 376.4 1945.5 369.6 1949.5 372.3 1951.3 367.3" style="fill:#2083c4"/><polygon points="1899.2 336.7 1888.5 326.8 1881.3 329.8 1880.4 333.6 1877.1 334.1 1885.2 341.2 1880.7 342.6 1887.6 351.4 1891.7 362.3 1897.6 361.6 1907.2 356.5 1907.8 351.9 1903.4 342.2 1899.2 336.7" style="fill:#2083c4"/><polygon points="1600.1 566.4 1597.5 579.9 1599.3 591.8 1603 598.4 1612.3 594.1 1613.1 585.5 1605.4 571 1600.1 566.4" style="fill:#2083c4"/><polygon points="1375.7 751.6 1373.3 748 1370.3 756.7 1361.4 769.2 1350.7 779 1337 782.6 1332.9 792.5 1335.5 809.3 1334.5 814.6 1327 825.1 1325.3 831.1 1329.1 855.5 1338.4 860.6 1350.9 855.1 1372.1 797.1 1376.6 776 1378.8 780.9 1379.6 770.6 1379 760.6 1375.7 751.6" style="fill:#2083c4"/><path d="M2018.2,125l-10.6-3.9,8,.5-40.4-31.8-12.3-3.1-20.5-3.3-10.3.4-19.8-1.9,2.4,3.1,11,4.5-3.3,2.2-18.5-6.2-8.9.8-12-1.4-14.2,1.6-9.4-2-6.7-5.1-8.5-2.8-12-1.1L1813,76.8l-21-5.2-10.2-4-52.4-4.4-2.7,2.9,12.2,6.3-9.7-1-1.3,1.9-12.7-2.1-6.5,1.8-12.2-3.1,3.9,7.2-11.6-2.8L1675.7,69l-.5-2.8-7.8-4.3-12.7-3.5-20.2-1.1,6.1,5.1-22.4-1-5-3.1-17.5-1.1-7,2.8-7.6-4.2-3,1.2-16.7-2.6,1.5-1.9,11.6-5.5-3.2-3.3-7.1-2.4-15-3.1-14.2-.1-2.4,1.5-5.3-3.1-12.1-1,4.5-1.5-10.8-2-8,2.5.7,5.4-9-.1-7,3.4-5.6-1.4-12.1.6.3,1.8-12,.9-6.3,3.2-5.5.2-1.7,4.3,7.2,3.4-22.4.6-7.6,1.3,6.3,7.1,9,5.6L1422.7,67l-10.4.4-6.6,2.7,5.9,4.9-6.4-1.2-2.7-6.5-9.2,5.8,10.6,5.6.5,6.9,3.8,3.9,6.2.6.5,4.6,5.7,4-1.8,6.9-5.5,4.4-6.9-1.1,4.5-10.2-.7-4.7-8.6-4.3-5-9.5-9.6-7,1.1-5.5-3.7-3.7-14.7-1.8-2.9,1.3.8,6.1-5.6,6.2,7.6,7.6.2,3.3,15.5,5.9-1.4,3.7-24.1-8-8.6-2.2L1334.4,84l-1.5,2.3,7.7,4.1-3.6,4.7-8.3-4.2-6.5,2.9-10,.2-2.7,2.4-7-.7,3.3-4.3-4.2-.3-25.9,9.4.5,4.6-7.8,1.6-5.2-2.5-1.6-4,6.5-.9-4.7-4L1247.5,93l5.6,4.4-1.1,4.3,6.1,4.3-1.4,5-11.2-2.9-10.5,7.1,5.5,5.3-4.1,1.8-14.9-4.6-2.7,2.8,4.3,3.2.3,3.6-12.8-4.2-3.8-10.8-10.4-5.3,3.8-.9,26.2,5.5,8.4-1.9,4.8-3.8-2-4.8-5.3-3.4-22.9-8L1194.3,88l-9.9-4.2-5.6,2.2-6.4-4,6.3-1.8-17.7-5-9,1.4-9.6-.3-6.7,5.7-8.7-.4-11,3-21.6,14.1-20.8,24-10.6,7.6-14.7,6.2-5.1,4.8,2.5,17.5,2.4,8.2,8.4,3.9,7.8-1.8,11.1-8.9,4.6,4.4h0l5.4,10.8,5.8,8.8,2.6,7.4,7-.4,2.9-6.2,7.4.8,2.6-7.3.8-13,5.9-1.8,4.3-8.6-11-9.5,2.8-10.5,18-12.3-1.6-4.5,4.5-5.1,9.1-2-2.4-2.8-2.3-11-9.3-4.8-7.7-3.4.3-.2,7.5,3.3,9.3,4.8,2.3,11,2.4,2.8,8.4,3.4-2.2,4.6-11.3,8-6.3,9,3.9,6.8-.1,7.4,6,2.5,4.1,4.1,19-4.4,10.3-.6-.2.2,6.9,3.6-5.8,4.2,1.2,1.3-.1.1-1.1-1.2-12.7-1-14.3,3.2,1.2,4.4,6.3,1.8.1,4.5,4.9-1.4h.1l-4.8,1.4-.2,5.9-4.8.2-5.7-5.8-5.2,2.6-2.2,4.9.6,5.8h-.1l2.2,6.6,6.6,1.4,2.9,1.2v.1l-2.9-1.2-6.6-1.4-8.1,2.5-1,3.5,7.7.9,11.3-.1-.7-2.1v-.1l.8,2,3.3.9,1.8,2.4,6,.1,6.2-3,.7-4.4,4.6-2.5-1.2-3.5,3.5-1.3,6-3-.1-.1,6.8,2,10.6,2.9v.1l-10.4-2.8-6.8-2-6,3-3.5,1.3,1.2,3.5-4.6,2.5-.7,4.4-6.2,3-6-.1.7,3.5-.9,7.8,2.5,3.7.6,3.5,3-.3,14.4-1.7h0l-14.3,1.7-3.1.3,4.1,7-.1.1-4.1-7-.6-3.5-2.5-3.7.9-7.8-.8-3.5-1.8-2.4-3.3-.8-11.3.1-7.7-.9-5.9-.1-.7-1.9-6.3-1.3-16.7,6.3-4,2.3,1.8,4-.1.1-1.7-3.9-3.1-2.5-7.2-3.1-9.5,3.6-.1-2.8-6.3-1.8-.3-3-3.8,1.2-4.7-1,.4,4,1.6,2.9-10.4,2.6-1.1,1.7,1.3,2.7-6.5,10.3,1.4,8.4-.5,5.4,1.3,1.8-.2,3.5,3,2h-.2l-3.1-2.1h.2l.2-3.5-1.3-1.8.5-5.3-3.5-1.9-4.1-3.5-5.8,1.7-4.6-.6-5.1,1.4,1,2.8,10.3,7.1h-.1l-10.5-7.2-1-2.8-5.2,1.7-1.8,6.6-14.8,6.3-6-3.5,1.9,9.2-10.8-2.1-8.4,1.8.5,5.9,9.8,3.1,11.4,12.6-1.4,16.1-3.5,4.8-10.5-.3-21.5-.9-8.1-1.4-9.6,5.8,2.6,3.5-.6,5.5-.1.1.2,2.9,1.2,2.9-2.2,11.7-2.8,3,3.8,9.4-.8,11.8,7.2.3,2.8-2.2,2.9-16.3-2.6-5,2.9-.7,1.8-11.5,3.2-2.2-1.8-4h.1l1.8,4.1-3.2,2.2-1.8,11.5-2.9.7,2.6,5-2.9,16.3,6.3,1.2,7.7,8.4,7-6.2h15.3l4.9-6.5,5.2-1.7,1.5-5.5,3.9-3.7-2.6-4.8,7.3-14,8.6-1.7,6.3-5.4-.4-4.7-7.7,1h0l7.5-1,.7-4.8,9.6-2.6,13.2,2.2,5.9-4.5-3-4.5-1.9-6.2.2-5.5.2-2.3-2.4-3.6h.1l2.4,3.6,2.9,1.7h-.1l-2.9-1.7-.2,2.3-.2,5.5,1.9,6.2,3,4.5,2.7-.6,6.7-4.8,8.8,3.6,2.5,7.9,16.6,13.5,5,.5,7.5,4.8,10.4,13.6.4,8.2,6.5-12.1-5.1-3.1,2.5-5.3,6,1.4,4,3.9.2-4.5-6.1-4.3-11.4-5.4,1.8-1.6-7-1.7-7.9-6.5-3.8-6.6-6.5-4-2.3-10.4,5.1-2.9,5.3,1.2-1.8-3.4.4-4-9.4-2.1-1.6-2.8-6.3,1.4-.7,1.5-3.7-1.3h0l-3.3-.2-3-1.5v-.1l2.8,1.4,3.3.2,4,1.2.7-1.5,6.3-1.4,1.6,2.8,9.4,2.1,5.4.6,3.2-1.8,5.7-.2,1.1-1.4,1.7-5.2-1.4-1.8h3.6l.2-3.3-.4-1.7.6,1.8.2.1-.2,3.3h-3.6l1.4,1.8-1.7,5.1h-.2l-1.1,1.4-5.7.2-3.2,1.8-5.4-.6-.4,4.1,1.8,3.4-1.4.7,10.4-1.9,2.6-4.1,5-2.2v.1l-5,2.2-2.6,4.1-10.4,1.9-.2.1,8.3,3.3,2.3,6.7,6,5.9,16.8,8.1,2.9,1.6,2.9.7,2.5-4,.1.2-2.5,3.9,1.2,6.4-.1,5.6,5.2,8.5,1.2.6h0l.7,2.3,11.6,21,5.9,3.7,4.6-.1-3.2-7.5,4.3-.9-2.4-4.3,6.5,2.2-.5-4.8-7.7-6.3,2.4-1.8-4.6-10.6,4,4.2,7.1-1.4-5.2-4.6,7.9-2.1,3.6.8,3.9.2.1,1.6,2.5,3.8,7.7-6.9,7.9-.4,1-2-6.2-2.6-1.1-3.1h-.2l-2.7-4.6,1.7-5.7,3-3.3-9.2-3.8h.1l9.2,3.8.5-9.7,2.1.8,2.9-1.7-.5-2.1-3.1-1.4h0l3.2,1.4,4.2-6,1.7-4.5,5.9-1,.9,3,10.5,2,2.2,1.9-6.7,4.2,7.6,2.4-.8,3.8,3.9,1.6,8.2-4.7,7-1.4.8-2.9-6.6.5-3.5-2-1.3-5,5.1-3,6-.4,3.8-2.6,5.1-.6v-.3l5.3-1.2.5,1.8-8.9,3.3,4.3,3.2-4.2,6.8-4.5,1.3,6.5,4.7,8.1,3,9.7,6.8.6-.9,5.9,1.4,10,1.3,9.8,3.8.1.1-9.8-3.8-10-1.3-5.9-1.4-.6.9,2.9,2.5,3.9.9,4.4,3,2.7,5.5-.3,3.5h-.1l-7.2,4.2-13.5.5-10.2-3.1-12.6-5.7-11,.2-7.5,2.3-7.3,5.3-13-1.1-2,6.2-10.4.3-6.6,7.9,4.7,4-2.6,6.5,5.5,4.7,4.9,8.4,7.5-.2,7.1,4.5,4.7-1,1.2-3.5,7.4.3,6.1,4.5,10.3-1,4.1-4.9,7.9,4.4,3,3.9-1.3,3.4,1.4,6.4,3.2.4,1.5,3.3-.1.1-1.4-3.2-3.2-.4-.1.3-2.8,5.9-1.7,6.7h0l-.2.1-.8,2.1-.7,6.3-2.7,7h0l-14.6-.3-3.7-1.4-13.9,2-5.2,2.6-17.4-5.9-9.1.1-1.9-2.7-12-2.4-2.6-3.7-9.6-1.7-11.5,9,2,6.3-6.5,6-7.7-4.1-16.4-5.1-3.6-7.4-18.2-4.4-8.3-2.9v.1l-2.7-1.3-1.9-4-3.6-.1-1.5-4.6,4.4-4.2.6-7.3-5.5-8.7v-4.3l-4.8-1-7.3,3.4v-.1l-4.7.5-2.8-2-7.3.1-6.4,3.3-3.5-1.3-23,2.2-11,6.1-7.5,1.5-6.7,4.6v.1l-2.9-.1-7.1-1.9-6.6.6-4.1-3.6h-5.1l-7.1,13.9-12.3,7.2-4.6,5.6-3.9,11.5,1.5,10.3L932,414l-6.6.9-8.6,11.8-4.8,3-3,9.6-8.6,11.5-7.5,15.3-.6,3.9,16.3-.7,4-6.7,2.6-11.5,10.2-9,3.6-10.5,4.7-7.1,18.5-2v.1l-18.5,2-4.7,7.1-3.6,10.5-10.2,9-2.6,11.5-4,6.7-16.3.7-.4,3.4,1.6-2.8,28.2.1v.1l-28.2-.1-1.6,2.8,3.7,3.6,1.8,3.9.6,16.5-3.2,11.9.5,4.4-1.8,4.3-3.6,5.8-3.2,1.6,3.6,3,2.9,6.4H893l-1,3.7,6.6.2,5.8-3.2.2.1-5.7,3.2-6.6-.2.8,6.3H893l.4,1.8,3.8,5.4,3.1.5,3.9,3.5,5.5-3.9,4.7-2.5.2-3.6.2-2.9-13.4-.3h0l13.5.3,3.5.1,5.2,2,6.1-.5,1-.5v.3l-.9.4-6.1.5-5.2-2-3.5-.1-.2,2.8-.2,3.6-4.7,2.5-5.5,3.9,2.1,1.4,1,1.8.8,3.7,6.5,6,3,4.7h0l.8,6.1,1.3,3,3.8,4.4,5.2,3.3,2,.6,1.8-2.7.4-2.4,3.3-4.5,3.1-3.4h0l-3.1,3.6-3.3,4.5-.4,2.4-1.8,2.7,4.9,5.4,6.2,4.5,6.6,6.3,7.5,4,1.8-.1v.2l1.4.2,12.4-5.4,8.7-1.4,9.8,1.5,3.3-.1-2.8-10.4,1.9-9.4.1-.2-1.9,9.3,2.8,10.4,6.5,2.4,6.6-2.4,4.1-2.8,11.5-4.9-4.2-12.3,1.6-7.5-2.5-15.6-3-4.3.6-2.5h0l-.5,2.5,3,4.3,2.5,15.6-1.6,7.5,4.2,12.3,5.9-1.8-1.8-5.7v-.1l1.8,5.7,5.9-1v.2h6.5l5.5-.1,5.2,5.5,6.4,11.2,11.5-1.2,7.3-2.9-.1,2.2,6.7,6.3,2.9,5.5-1.1,6.6h.5l-2.5,9.2,1.3,1.2-1.5,6.2-3.6,11.5,4.4,8.6,4.8,6.9,7.5,8.4.1-.1,6,8.8,3-3.6,2.2-1.4,2.7,2.8,1.9.9,9.7.7,10.5-11.9-.2-6.8,6.6-12.3,4.8-4,2.2-8.6-.4-4.7,4.5-17,.4-5-4.7-.5-5-1.4,5,1.4,4.7.5.6-5.8,6.7-6.9,21.6,8.3,14.6-9,19.3-.2,2.4-.9-1.2-2.5h.1l1.2,2.6h0l-2.4.9-19.3.2-14.6,9-21.6-8.3-6.7,6.9-.6,5.8-.4,5-4.5,17,.4,4.7-2.2,8.6-4.8,4-6.6,12.3.2,6.8-10.5,11.9-9.7-.7-1.9-.8-2.7,1.7-1.2,2.1-.2,3.6-1.9.9,1,2.5h-.1l-.7,1.7,7.3,18.8-2.3,3.3,3.2,11.7,1.6,13.8-8.4,12.5-2.5,7.5-4.2,18.5.6,5.2h-.1l.3,6.4,5.7,8.1,5.1,15.2,7.1,14.8-.1,9.9,4.9,26.9,2.6,6.1,5,6.3,3.6-4.1.2.3-3.3,3.8,4.6,10.8,7.4,14.8-.2,6.4-2.3,1.5,5.6,15.3,8.2,2.9,25-8.4,7.4,1.6,12.4-3.1,7.6-3.2,19.6-17.3,6.8-10.2,10-9.6,3.5-10.7,2-5.9h.1l.9-4.4-2.2-4.1,3.3-3.1,14.9-7.3,3.2-3,1.7-16.9-5.5-13.2.9-5.9,11.3-9.3,8.6-8.9,15.2-7.2,4.9-5.2L1311,770l-1.1-4.1.2-28.5-1-3.5.1-.1-2.6-1.8-5.2-13.4,2.3-11.5-4.8-5.2-.3-4.7,3.6-10.2-.2-.1,3-2.7,3.9-8.9,1.1-5.9,4.6-4.1,5.2-3.3h0l1.7-2,1.7-4.4,8-10.1,25-21.3,14.5-20.6,6-12.2,10.6-31.9V548l-15.5,5.1-.1.2.6,16.1h0l-.6-16v-.2l-16.6,4.9-18.3,3.1-5-6.9-2.4-1.5-2.5,4.4-1.5,2.9,2.8,4.6,2.8,4,2.9,3-.2-.1-2.9-3-2.8-4-2.8-4.6,1.5-2.9.1.1,2.5-4.4-3.2-2.3,4.1-2,.1-3.4-1.8-2.6h0l-3.7-2.5L1314,527.6l-14.5-11.9-2.4-7.6-4.6-9.4.1-.1-4.1-3.1-2.9-2-4.7-18.5,1.5-1.5-2.8-8.1h-85.3v-.2h85.2l-1.4-1.7-8.8-7.5.8-6.8-7-9.2-16.9-30.5-3-9.5,6,11.9,6.1,6.4,1.5-1.5L1261,403h0v-.1l.3,1.1,8,1.3-.1.1-8-1.3-.6,3.3-.8,7.5h3.5l8.9,12.4,10.2,19,7.6,5,4.7,9.2,1.2,10.7,5.2,7.9,8.6,7.1,13.7,22.5,1.1,3.5,3.8-10.2h.1l-3.7,10.1.5,3.6-1.3,5.8,2.3,3.4,5.1,18,11-.5,1-2.1,25.3-8.7,6.2-5.9,18.4-7.4,1.1-6.5,5.1-2.2-2.8-5.8-6.6-13.7h.1l6.7,13.6,2.8,5.8,3.3-.5,29-19.6-1.4-5.6,5.4-5.8,7.9-17.5-8.6-8.6-14-5.6-3.8-5.4h-.2l-3.3-9.2-3.9,5.1-9.1,11-15.8.8-.5-2.3-1.1.4v-.1l-1.7-3.2,1.1-4.9-.6-4.9-5.8,2.7,1.1,6.1,2.3,1.6-2.3-1.6-1.3-2-4.7-7.9-.4-6.2-10.5-8.3-3.6-7.2h.1l-3-6.3.4-1.9-1.9-3.7,4,.4-4.5-4.4-2.6-10.4-4.5-6.3-9.2-4.5-6-7.9.6-6.5,3-2.9-1.3-4.9-4.9-2.5-5.8-10.1h-.1l-4.7-6.7.9-2.6-3.8-9.6.1-.1,3.8,9.6-.9,2.6,4.8,6.8,6.1,10.1,4.9,2.5,1.3,4.9-3,2.9-.6,6.5,6,7.9,9.2,4.5,4.5,6.3,2.6,10.4,4.5,4.4,2.2-3.2,4.8,2.7,3.6-1.3,12.4,18.9,7.1,2.4,7.9,6.4,9,2.8,15.5-4,4.3,10.2,16.2,3,13.3,2.4v.1h.4l9.5-1.2,11.6-.2,12.9-1.6,6.3,6.3,2.9,6,5.5,2.1,4.1-5.5h15.7l-2.4-7.1-4.6-4.2-1.7-6.4-5.2-3.7,6.4-8.7h.3l-6.4,8.7,5.2,3.7,1.7,6.4,4.6,4.2,2.4,7.1h-15.7l-4.1,5.5,9.2,7.1,2.5,3.3-3.1,3,10.5,10.1,5.2,1,9.9-5,2.2,7.8,1.1,10.1,7.9,26.7,7.6,11.4,4.3,15.6,4.4,8,10.1,23.9,7.3,7.8,5-8,6.5-2.4-2.4-2.7,3-6.3,3.8-.4-.9-14.1,2.5-7.9-3.5-17.7,1.5-6.3,13-5.5-.4-3.8,18.3-20.4,9.7-5.6,3.2-4.9-1.2-6.2,13.5-1.6.6-3-5.5-13.1v-.1l5.4,12.8,2.9.7,6.3,1.1.5-8,6.7.3,6.6,13.1,2.5,4,.1.5,6,6.8,10.9,13.6,2.5,7.8-1.2,10.3,8.9,2.7,11.7-10.1,4,6.9,6,20.4,3.4,4.3.3,9,2.9,4.9-1.7,6.4,1.2,6.2,6.2-16.3-3.6-7.6-1.6-8.5-5.6-6.6,1.9-12.9-13.6-18.8,2.8-1.5,2-9,5-.4,3.7-3.6,4-2,1.1-3.1,5.3-5.4-.1-.5.8,1.8,3.9.2-2.6-9.5,3.5-1.2,3.5-2,12.5-.9,5.3-4.4,4,3.1,6.8,1.5v.5l-6.2-1.4-4-3.1-5.3,4.4-12.5.9-3.9,2.1h0l-3.4,1.2,2.6,9.5-3.9-.2-.9-2-5.3,5.4-1.1,3.1,3.5,2.6,1.2,5,4.9.4-.5,8.8,1.2,7.4-.2.1-1.2-7.4.5-8.8-4.9-.4-1.2-5-3.5-2.6-3.8,1.9-3.7,3.6-5,.4-2,9-2.8,1.5,13.6,18.8-1.9,12.9,5.6,6.6,1.6,8.5,3.6,7.6-6.2,16.3-1.6,8,1.2,9.8.9-4.9,9.4,12.7,3.1,3.2,1.6,3.4-.5,6,2.8,4.5,1.3,6.9,5.4,9.8,15.9,12.7,5.2-.6-3-10.2-2.6-2.3-1.5-17.1-7.9-10.6-1.7-.8-.1.1-3.7-4-4.5-1-4.3-4.8-5.2-14.8-4.8-.3-.9-6,4.7-19.5-.3-9.1h6.4l-.4,6.5,6.2-.2,6.5,3.6v.1l4.5,8.6,3.3,4.3,6.4,1.3,5.8,4.7-1.6,5.6,3,5.3,8.6-7.7,5.4-6.9,13.5-10.8-.5-14.6-5.2-15.4-5.3-6.7-7.3-5.1-15.2-19.6.7-5.8,4.8-7.8,8.5-7.1-7.6-2.2-4-3.4v-.1l3.4,2.9,7.6,2.2,3.2-1.4,10.1,2.7-1.2,3.2,2.9,6,3.9-.5,1-8.8,7.4-1.3,9.3-4.2,3.3-4.1,3,2.7,3.7-3.7,7.9-1,16.9-14.7,4.4-9.9,5.7-19.9,3.7-.7-1.3-13.3-5-2.6-3.2-4.4,3.6-2.3-2.1-6.1-20.1-22.2-9.3-4.6,1.2-5.9,5-4.2,1.3-4.6,8.7-2.4-3.1-4.4-12.1-3.5-5,6-6.5-2.5-1.9-3.8-6.2-1.4-6.1-5.7,1.7-3.9,6.5-.4,1.6-5.4,9.1-8.6,5.8,4.3-2.5,5.5,3,3.2-1.8,3.9,6.2-2.3,3.1-3.9,8.2-2.4,2.7-5.3,5-4.4,1.3-5.7,4.6,2.5,5.5.3.8.9-6-.3-4.6-2.5-1.3,5.7-5,4.4-2.7,5.3,4.3,2.2,5.5,2.3.6,10.7,7.3,1.4,4.1,1.6,3.3-.5.9-3.8,7.2-3-5.7-3.7-4.7-5.9,5.5-3.6,4.1-5.7-3.6-5.8,4.5-5-1.8-1.4-.1-.1,6.4-7,6.6,3.9,4.1-.1,5.9-4.7,6.5-23.4-1.7-5.6,1.4-11.8-6.9-12.9-7.1-9.6-1.8-8-6.1-6.8-16.7-8.7-7.2-.5-.5,3.9-7.5-1.8-7.4-4.9-10.6-1,6.5-18.4,4.5-15,17.1-2.3,19.4,1.3,3.3-3.8,10.4,1.2,5.6,5.5,19.3-2.8-10.1-4.7V144.8l11.9-2.6,15.8,9.3,4.7-8.3-4.2-6.2,6.2-.6L1963,147l-3.2,6-.6,17.5-7.4,1.7,3.6,3.6-.1,4.6,8.4,10.8,42,34.6,2.2-7.4-5.9-8.1,7.4-1.9-7-9,6.6-4-6.1-3.4-4.4-6.5,5.3-.3L1992,173.9l-8.8-1.7-3.7-3.1-1.5-7.4-4-5,9.1,1,1.7-3.3,6.1,2.8,7.9-6,14.9,5.3-2.1-3.5,4.6-9.9,4-.9,8.5-5.6,12.9,1.6Zm-930.4,21.1-4-3.8-1.3-9.9h0l1.3,9.8,4,3.9Zm3.3-20.6-.7-5.3h0l.7,5.3Zm86.2,40,3.1,7.1-.1.1-3-7.2Zm1.1,9.7h0l3.1,1.7v.1ZM960.9,300.4l-1.4-3.8h.1l1.3,3.8Zm56.1-6.3h-.1l2.3-1.7.1.1Zm35.2-55.4-1.5-.7-5.5-3.6h.1l5.7,3.7V238l1.4.6Zm11.5,9.1-.6,5.7h-.2l-1.7,1.4-7.3,5.9v3.7h-.1v-3.7l7.3-5.9,1.7-1.4.6-5.8,3-5.6.3.1Zm38.7-37.1,4.1,9.7,2.9,5h-.1l-2.8-4.8-4.1-9.9Zm21.2,34.9-3-1.5-3,.4-10.8,1.4-5-2.6v.1l-3.7-3.3-5.6-7.7.3-.1,5.4,7.4,3.9,3.5,5,2.6,10.8-1.4,3-.4,2.8,1.4Zm73.6-24.2h0l-9.6.1h0Zm-33.8,10.5h0l-4.8,6.6,2.1,3.6-.2-.1-2-3.4Zm-.4,47.7-2.1-.6-.2-.1,2.3.7Zm-10.4-41h0l-11.1,2h0Zm-14.7-.9h0l-2.4,1.1h0Zm1.9,38.2h-.1l-17.7-1.2h0l17.8,1.2.1-.1h2.3l-1.3,3.5,3.5,3.1-.6,3.8h-.1l.6-3.7-3.5-3.1,1.3-3.5h-2.3Zm-9.8-8.8h0l5.5,1.6,2.3-1.2h0l1.9,3,2.3,2.3v.1l-2.3-2.3-1.9-3.1-2.3,1.2Zm15.1,21.9-1.1-1.1-1.7-1.2h0l1.8,1.3,1.1,1.1Zm4.8,3.3-.3.1-1.1,1.7h0l-1.7.7v-.1l1.7-.6,1.1-1.8.5-.7-2.6-1.6h.1l2.7,1.7Zm-3.1-26.5h0l.8.6Zm-.3-19.8-1.3,1.9-17.4,3.7-.2-.1,17.4-3.7,1.3-1.9,9.2,2,1.3-.8V247l3.8,2.2v.1l-3.6-2.1-1.3.8Zm9.8,64.4-.1-2-3-2-1.3-3.5v-.1l1.3,3.5,3,2,.1,2.1Zm-4.3-7.9.5-2.4h.2Zm9.2-6-2.2.5-1.5.3-3.8,1.2-.1,1.7h-.2l.1-1.7,3.8-1.2,1.5-.4-.3-.6,1.3-2.9-8.6-1.6h.1l8.7,1.6-1.3,2.9.3.6,2.2-.4,2.9-.2.1.1Zm12.7,8-5-.2v-.1l4.8.2,5.1-2.2.2.1Zm-7.4-20.3-2.1-3,.1-.1,2,3.1,17.5,1.1h0Zm29.4,13.5h.1l-6.4,2.5,3.1,1.9-3.1-1.8.4,4-6,.8-.2-.1,6-.8-.4-4Zm3.8-26.8-1.7-3.7.2-3.5-.7-3.6-9.2-10.6h0l9.3,10.7.7,3.6-.2,3.5,1.6,3.6Zm3.1,1.5-3-1.4h0l3,1.4Zm6.6-11.2-6.5-9.4-11.1-5-4.2.8-1.3,1.1h-.1l1.3-1.2,4.2-.8,11.1,5,6.6,9.5Zm8.4-45.2-1.2,1.8-2.4-.3-6.9,2.2.3,4h-.1l-.3-4,6.9-2.2-.1-.2,2.3.3,1.2-1.8,8.3-.4.2.2Zm29.9,16.5-8.6-2.8v-.1l8.3,2.7,4.6-1.3.3.2Zm13,2.4-3.7.1-.2-.2,3.6-.1,10,2.6v.1ZM899.3,544l-2.3-.3h0l2.3.3Zm8.5-6.4-.2-.1,6.2-1.7-8.7-3h0l9,3.1ZM1117.3,792l-9.9-3.4h0l9.9,3.4Zm25.2-77.1-6.5-12-1.8-6.1h.1l1.8,6.2,6.4,11.9Zm183.9-170.4Zm-5.7,2.9,2.4-3.6h.1l-2.4,3.7-1.5,8.6h-.1Zm-5.4,77.4,6.2-9.4h-.1l2-2.6,4.7-.2,6.4-5.9,9.5-.4,20-24.8h.2l-20,24.8-9.5.4-6.4,5.9-4.7.2-2,2.6-6.3,9.4Zm-8.5-8.7,6.6-3.5h0l-6.5,3.5-2.1,3.5h-.1Zm-22.1-5.1h0Zm-1.5-82.1-3.6-.6h0v-.1ZM1173.8,708.5l1.5,8.4-1.1,5,2.8,8.2-.6,9.8h-.1l.6-9.9-2.8-8.2,1.1-5-1.4-8.3Zm.5,46.5,15.2.1.3-13.7h0l-.3,13.9-15.2-.1-1,26.2h0Zm-27.5,36.6,4.9,4,17.4,1.2h0l-17.5-1.2-4.8-4Zm19.1,8.1-1.1,29.6-7.1.3-.8,24.1h0l-1.3,30.7-6.5,4.2-.4-.1,6.4-4.1,1.7-30.7.8-24.2,7.1-.3,1.2-29.5,16.5-3.3.1.1Zm30.2-5-4.1,1.9-6.9,3.3-.1-.1,6.9-3.3,4.1-1.9V794l.1.1Zm1.3.7h0l.5,1.1Zm24.3,95.6-2.3-2.5-2.9-2.6-11.6,10.2h0l11.6-10.2,2.9,2.6,2.3,2.5Zm-5.5-64.7,5.3,1.3.1.1-5.4-1.4Zm9.8,5.1Zm6.4,1.5h0l2.3-1h.1Zm2.5-53-.4-3.1h0l-.5-5.7h.1l.5,5.7.3,3.1Zm7.8,90.1-1.7,3.7h-.1l1.8-3.7-.4-3.6-.8-3.7-3.5-1.5.1-.1,3.5,1.5v.1l.8,3.7.3,3.6Zm-1.5-10.3h0l1.8-9.3h0Zm11.2-62.4-2.3,12,1,2.5-4.4,11.6-8,9.4v-.1h-.2l8.1-9.3,4.4-11.6-1-2.5,2.4-12,.4-10.5-11.8-7.1h.1l11.8,7.1ZM1240,660.8h0l.8,1.3-.3,3.4-.1-.5.3-3Zm16.1,103.4-3.5-2.1.1-.1,3.4,2.2h0Zm1.4-35.7-3.3-3.6-3-1.9,3,1.8,3.3,3.7Zm16.8,51.6-3.2,1.7-2.5,5.8-.1-.2,2.4-5.6,3.2-1.7-.2-10.7-7.9-8.6-1.7-10.8,2.2-6.3-1.5-11.3-2.4-3.9-1.3-2.2h0l1.4,2.3,2.4,3.9,1.7,11.2h-.2l-2.1,6.3,1.7,10.8,7.9,8.6Zm-25.7-231.5,2.6,7.3h0l-2.6-7.3Zm-8.2,79.8,2.8,1.1h0l-2.8-1.1Zm-2.6,28.9,2.6-1,8,.1,15-.5-.1-8.8,5.7-8.9,2.6-6.1-4.2-13.7-3.5-5.7,4.4-5,4.9-5.5-4.5-9-8.5-9.3-4.5-.6h0l4.5.6,8.5,9.3,4.5,9h.1l-4.9,5.5-4.4,5,3.5,5.8,4.2,13.7-2.6,6.1-5.7,8.9.1,8.8.1.1-15.1.4-8-.1-2.7.9,1.8,2.9h0l-1.8-2.9Zm0,0-3.3,2h-.1Zm-5.4-47.5h0l-4.1,1.8h0Zm.6,49.9h0l-1.3-.5h0v-.1Zm-2.3,34.8-.5,2.8v-.1l.5-2.7Zm6,21.9,2.8.8.1.2-.1-.1-2.9-.8-13.9,7.6h0Zm-11.3,41.7,5.5.1v.1l-5.6-.1-5.5-8.1-5.6-1.2-1.5-4.4-4.5,2.6-5.8-1.2-2.4-3.8-8.4-3.1-2.4-.2v-.1h.1l2.5.2,8.4,3.1,2.4,3.8,5.8,1.2,4.5-2.6,1.5,4.4,5.6,1.2ZM1113.1,528.7l3.1,3.1.1,5.3,4.7.2v.1l-4.7-.2-.1-5.3-3.1-3.2Zm14.6,36.4h-.3l-4.1-7.6.2-5.5-.6-5.5-2.9-5.1.3-.1v-.1l2.9,5.3.6,5.5-.2,5.5Zm-6.9,8.4-4.4-4.8,1.5-3.9h.3l-1.5,3.9,4.4,4.8,6.6,10.6-.9,2h-.3l1-2Zm4.4,15.5-2.4,5.7-.1.1Zm-13.6-53.5h0l5.1,9h0Zm-20-91.6,5.7,3.9h0l-5.7-3.9Zm-7.1-56.5.3,6.8h0l-.3-6.8Zm-1.2,26.6.6-10.6-2.5-7.3h0l2.5,7.3-.6,10.6.5,13.6-2.8,3.5,7.3,14.3h0l-7.3-14.3,2.8-3.5Zm-131.2,4.1V418h1v.1Zm-23.5,107-2.4,1.4h0l2.4-1.4,16.8-5.8,29-.1v.1l-29.1.1Zm9.2,53.5-4.3-13.9h.1l4.3,13.9Zm-6.5-30.9h0l9.2,1.8,13,3.7h0l-12.8-3.6Zm18,39.5-7.7-9.1h0l7.7,9.1Zm4.6-2.9h-.8l.8-.2ZM989,565.8l-9.3.7-1.3-2.7-3.3-1.8-3,1.2-2.8-2.5-4.7,3.2-7.7-1.3-1,.8-1.3.5v-.1l1.5-.6-.1-.1.9-.8,7.7,1.3,4.7-3.2,2.8,2.5,3-1.2-.5-4.8,1.8-6.3,5.8-6.9,3.1-7.7.4.1-3.1,7.7-5.8,6.9L975,557l.5,4.8,3.3,1.8,1.3,2.7,9.3-.7,4.4,1.9.1.3v.1Zm6.7,14-1.1-7.6,1.2,7.4Zm31.1-7.7-6.5-11.1v-.1l6.5,11.2Zm3.8-28.9-8.3-1.9v-.1l8.3,2Zm66.8,86Zm4.1,47.3-2.7-5.5.1-.1,2.7,5.5Zm4.9-8.7h0l.5-3.6.1.1Zm-5.7-214.6L1076.4,469l-20.7,16.3-10.1,3.7.1,19.1-3.9,5.5-.6,5.1-16.3,2-2.7,3-4.7.3v.1h-4.6l-12.6,3-1.4,2.6-9.7,7.5-.4-.1,9.7-7.5,1.4-2.6,12.6-3h4.7l4.7-.3,2.7-3,16.3-2,.6-5.1,3.9-5.5-.1-19.1-8,.8-.1-5.3-9.6-7.6-24.2-18.1-24-18.1-10.8.1v-.1l10.9-.1L953,420.4l-.3,12.6-23.4-.4-.2,21.3-6.7.7-1.8,4.3v-.1l1.8-4.3,6.7-.7.2-21.3,23.4.4.3-12.6v-.1l26.4,20,24,18.1,24.2,18.1,9.6,7.6.1,5.3,8-.8,10.1-3.7,20.7-16.3,24.2-15.8.2.3,11.4,3.6.2.2Zm16.7,215.2h0l2.3-15.8-3.5-4.9,3.2-9.6-7.3-1-2.1-4.3.6-3.5h0l-.5,3.4,2.1,4.3,7.3,1-3.2,9.6,3.5,4.9Zm14.7-39.3-.5,4.5h-.1l.6-4.5-.9-2.3-.3-3.8-10.2-14.3.3-12.4.1-.1-.3,12.4,10.2,14.3.3,3.8.8,2.4Zm-3.8-175.4-7.1,4.5,2.1,12.9,2.7,2.2.2,2.6,3.1,2.8v.1l-3.1-2.8-.2-2.6-2.7-2.2-2.1-12.9-5,3.1-.2-.2,5-3.1,7.3-4.6,29.1,15.9,29.2,15.9v.2l-29.2-15.9Zm53.9,105.2-.8-3.3h.1l.9,3.5Zm4,14.8-.2-.2.5-9.3.2.2Zm1.9-55.2-6.3-.6-3.4,13.2-2.3,2.5-1.6,10,1.6-10,2.3-2.5,3.4-13.2,6.3.6Zm20.3,80h0l-10-12.9-4.2-6h.1l4.2,6.1Zm-13.5-116.7v.2h-8.3v-.2Zm68.3-92.1-.5-3.1-3.2,1.1-.1-4.2h0l.1,4,3.2-1.1.5,3.3Zm.3-5.7-.5-4.9.9-2.6-.1-.2v-.1l.1.1.1.1-.8,2.4Zm1.1-9.1-.5-3.3h0l.5,3.3Zm149.1,66.2h0l-3.1,14.8.1,3.3,3.8,5.9-3.4,16.6h-.1l3.4-16.5-3.8-5.9h0l-.1-3.2Zm-4.1,19.6-.3.4h0Zm-46.9,36.4,6.5-3.7h0l-6.3,3.6-4.6,8.7h-.1ZM1755,596.6l.7,3.9h-.1l-.7-3.9Zm33.7-69.6,6.7,3.1h0l-6.7-3.1Zm-7.5-8.4.6,7-1.9,3.7,6.1,3.4h0l-6.4-3.3-2.3-.4,2.4.4,1.9-3.7-.6-7-6.9-7.2-1.6-8.2-6.5-6.7-13.1,1.1.1-.1,13.2-1.1,6.5,6.7,1.6,8.2ZM1393.9,202l22-2.7,2.2-1.9,14.1-2.9,4-3.2L1448,193l5.7,8.1,5.6-1.9,9.2,2.7,1.5,4.3,5.7-.5,11.9-7.4-.3.7-11.5,7.2-5.7.5-1.5-4.3-9.2-2.7-5.6,1.9-5.7-8.1-11.8-1.7-4,3.2-14.1,2.9-2.2,1.9-22,2.7-1.6,2.4-.3-.2Zm85.3,116.9v.1l-5.7-.4v-.1Zm-80.4-108.3-4.9,2-.4-.4,4.9-2Zm-3.5,4,.3.3-4.2,3.6-.5-.2ZM1311.4,293l6.6,1.7.1.1-6.6-1.7-3.8,1.3-.1-.1Zm2.3-45.8,2.1-5.8.2.2-2.1,5.8Zm-41.5,132.3h0l12.4-8.7,14.4-8.7,1.2-10.2-1.5-6.2,3.5-2.1,2.6-5.2h0l-2.6,5.2-3.5,2.1,1.5,6.2-1.2,10.2-14.2,8.6h0Zm6.5,19.3-5.3,1.1.1-.1,5.2-1Zm8.8-16.7-13.4,4.2-.1-.1,13.5-4.1Zm42.8,23.4,13.2.7,4.2-8h.2l-4.3,8,6.4.8,2.2,4h-.1l-2.2-4-6.4-.8-13.2-.7-21.8-16.6-11.1-5.8-8.7-2.2h0l8.7,2.2,11.1,5.8Zm-11.7-98.4-1.8-2.1-9.1,1.3,1.7,2.8.1,4,5.4,2,3.1,2.4h-.1l-3.1-2.4-5.4-2-.1-4-1.7-2.9-7.2-4h.1l7.1,3.9,9.1-1.3,1.9,2.3,6,6.2v.1Zm6.8-7.1-4.6-1.9-.1-.1,4.6,1.9.9.1Zm2.7,5.5-4.2-4.4h0Zm3,19.9-2.4.2h0l2.4-.2-1.3-5.8-6.6-3.6v-.1l6.6,3.6,1.2,5.8,6.9-6.2,4.9,1.8v.1l-4.8-1.8Zm52.8,15.2-10.3,2.2-10-1.5-5.5-4.2-6.8-1.8-3.3-6.2-6.7-4h0l6.6,3.9-1-4.2,2.6-11.3-.4-3.3-9.1-10h0l-9.4-9.4-.6-5.4-7.7-7.6,4.6-8.3,6-1.3,1.6-4.4.3.1,5.7-1.7,6.6-3.6,6,2,6.4-.4,2.5,5,.9,7.9-6-1.2-5.2,1.3,1.2,5.9-6.6-.8,5,4.6,4.8,7.2,8.4,2.7,1.1,6.2.7,1.8-.1.1,3.3,5.2-.7-5.9,4.9-2.1,9.1,9.5-5.3,2.6-6.8-2,.1,6.9,4.6.5-.5,5.7,5.9,2.8.8,8.8,2.4,6,.2-.1Zm-53.2-82.3h0l.4,3.8h-.1Zm56.4,46.8-6.3-6.3.2.1,6.1,6.2Zm-3.6-79.1-10,.2-5.6,3.4-8.5-3.2-15.6-5.5-9.8.2-10.5,8.7.8,5.9-7.8-4.7-2.7,8.6-.2-.2,2.8-8.9,7.8,4.7-.8-5.9,10.5-8.7,9.8-.2,15.6,5.5,8.5,3.2,5.6-3.4,10-.2,9.5,4.2,1-2.4,9,.3.2-3.4.1.1-.2,3.8-9-.3-1,2.4Zm7.1,78.7-.1-.2,7.3-.1.1.2Zm46.2,51.1.2-3.6h.1Zm52.3-16.5-2.7-1.6-4.3,2.7-2.3-1-5.6-1.8-3.8-.1-2.1-.3-9.5,2.4.2,6.8-8.5,3.8-.6,3.8-5,1.1-.3-.1,5-1.1.6-3.8,8.5-3.8-.2-6.8,9.5-2.4,2.1.3-1.1-5.2-10-3.6-22.8-13.8-5.6-8.4-12.8-2.8-2.5-6.4-10.2-4.2-9.2,7.4v-.1l9.3-7.5,10.2,4.2,2.5,6.4,12.8,2.8,5.6,8.4,22.8,13.8,10,3.6,1.1,5.2,3.8.1,5.5,1.8v.1l2.3,1,4.3-2.7,2.7,1.6,8.1-11.3.3.2Zm-4.7-25,.3.1.7,4.7h-.3Zm17.1,6.9-9.1-2.7h.2l9.1,2.7Zm-1.9-7.2-5.4-.8-1.7,2.5h-.3l1.7-2.5-2.4.2-1.4-6.1-8.3,1.9v-.1l8.4-1.9,1.4,6.1,2.7-.2,5.4.8,6.7-5.8h0Zm-10.5-19.3v-1.5h.1Zm15.3-4.5.1-.1.6,4.7h-.1Zm-6.8-82.8-10.9-6.1.1-.4,10.7,6,23.6,20.2,1.4-4.2,10.9,4.6,8.1-2.1,19,11.1,7.7-1.1,5.7,4.9,2.2-.7,6.1-1.4,8.7-6.9,7.7-3.8,6.8,2.5,6.7.1,6.2,3.8,6.5.3,10.3,2,3-5.5.3.3-3.1,5.6-10.3-2-6.5-.3-6.2-3.8-6.7-.1-6.8-2.5-7.7,3.8-8.7,6.9-6.1,1.4-.2-.3-2.2.7-.1.2-5.5-4.7-7.7,1.1-19-11.1-8.1,2.1-10.9-4.6-1.4,4.2Zm110.2,61.5h0l-1.8-9.4.1.1ZM1566.6,247h0l3.2,7.7v.1Zm.9,130.8h-.1l-4.2-7.7v-.3Zm-26.7-102.2.2-.1,11.1,13.6-.2.1Zm9.8,20.2v.2l-2.2-4.4h.1Zm-35.1,21.9h0l-1.3-1.6h0Zm20.3,67.1,1.4,5.9-5.1,8.3-2.8,8.4-5.9,8.7h-.3l5.9-8.7,2.8-8.4,5.1-8.3-1.4-5.9,4.9-4.8-6.6-4.1-7.9-12.9,2.5-3.6h.3l-2.5,3.6,7.9,12.9,6.6,4.1Zm16.4-31.3-5.1,6.7-7.4,1.2h-.1l7.2-1.2,4.8-7.1-12.2-3.4-3.8-6.5-5.8-3.7.2-.1-1.9-2.4H1521l-4.9-.6-8,6.4-.3-.2,8-6.4,4.9.6h7.1l-2.4-4.8-.7-3.3-4.7-1.9-2,.8-4-7.7h.2l3.8,7.4,2-.8,4.7,1.9.7,3.3,2.4,4.8,1.9,2.4,6.1,3.9,3.8,6.5,12.2,3.4,10,9.8.1.6Zm83.3,75.6-14.6-2.7-4.9-4.2-9.9-1.1L1581,409.2v-.3l25.1,11.9,9.9,1.1,4.9,4.2,14.6,2.7,5.8-.1.1.3Zm3.9-12.3v-.3l-8.5-.9-8.4-1.9-12.3-5.3-3.2-4-18.7-9.1-2.5,2-.2.2-10.9-5.7-8.1-5.2-4.1-9.1h.1l3.7,8.3,8.1,5.2,11.1,5.8,2.5-2,18.7,9.1,3.2,4,12.3,5.3,8.4,1.9,8.4.8,4-1.7.3,1Zm9.5,30.1-4.7-2.1.2-.3,4.5,2.1Zm0-8.4-5.6-4.2.1-.3,5.7,4.3Zm23.3,9.4-3.1.5-1.4,4.5-.2-.2,1.5-4.7,3.1-.5,2-6.6h.2Zm6.2,21.9-.1-.3,2.6,1.2v.3Zm10.4-62.6-6.4-2-6.9,5.3-5.1,6.2-5.2.9-.4-.3-3.5-2.3-3.8-.2-5.5-1.9-3.4,2.1-3.4,6.2.5,1.7,7.1,3.2,16.1-1-.6-4.7h.1l.6,5.1-16.1,1-7.1-3.2-.5-1.7-.3-1.1,3.3-6,3.4-2.1,5.5,1.9,3.8.2,3.6,2.2,5.5-1,5.1-6.2,6.9-5.3,6.4,2,4.2-3.5,4.6,5.2-.2.4-4.1-4.6Zm15,6.1,1.3,3.1v.1l-1.2-2.9-7.9-1.2.4-.9,7.2,1.1,4-.6,7.1,6.9.1.6-7-6.8Zm16.7,34.9-7.3,1.4-.1-.7,7.2-1.4,3,7.6,4.8,1.6-.1.6-4.5-1.5Zm16,20.7-9.2-4.6.1-.6,8.9,4.5,4.9-2.4.1.7Zm18.8-184-6.1-5.6v-.1l6.1,5.7Zm-4.2-48.9-9.4-3.6-5.8,5.7-12.3,3.3-14.7-1.2-14.9-8-7-1.1-7.4,1.1-5.1,1.5-11-3.4-4.7-6-8.6-2.1-15.3-4.2-1.7,8.1-.2-.2,1.7-8.3,15.3,4.2,8.6,2.1,4.7,6,11,3.4,5.1-1.5,7.4-1.1,7,1.1,14.9,8,14.7,1.2,12.3-3.3,5.8-5.7,9.4,3.6,7.2-.7,9.6,3,5.7-5.1.1.2-5.7,5.1-9.6-3v.2Zm20-6.6-.1-.1-.2-8.5,1.7-2.6.1.2-1.7,2.6Zm12.1,23.2-6.8-2.6-3.2,3-10.2-.2-3.6-3.3v-.1l3.5,3.2,10.2.2,3.2-3,6.8,2.6,9.3,5.7.1.2Zm37.8-24.3-20.8-16.4-7.7-2.9-11.1-2.4-8.1.2-6.6,1.4-2.1,3.8-.2-.1,2.2-3.9,6.6-1.4,8.1-.2,11.1,2.4,7.7,2.9,20.8,16.4,1,1Zm63.5,63.2-.5-.9,2.9-.2.5.9Zm.5-38.4.1.6-.4,2.5-.2-.4Zm-5,18.1,8.9,1.4-.6-7.1v.1l.7,7.9-8.9-1.4-3.4,2.5-.5-.6Zm-.6,23.3-.1-4.5,6.5,4.2.7,1.2-6.9-4.5.1,4.5-8,3.4-.6-.8Z" style="fill:#2083c4"/><polygon points="2200.3 823.7 2211.4 834.1 2214.7 832.1 2207.2 823.1 2199.7 815.1 2200.3 823.7" style="fill:#2083c4"/><polygon points="1046 222.4 1050.1 225.9 1053.6 227.8 1052.2 219.4 1058.7 209.1 1057.4 206.4 1052.2 206.2 1043.8 209.5 1038.6 221.2 1035.4 223.4 1040.2 224.1 1046 222.4" style="fill:#2083c4"/><polygon points="1112.8 32.4 1121.6 33.8 1131.5 31.3 1121.7 27.7 1112.3 28.9 1112.8 32.4" style="fill:#2083c4"/><polygon points="1076.7 30.3 1084.1 32.1 1080.2 34.3 1091.2 38.1 1096.9 37.9 1098.1 32.7 1102 31.5 1103.5 27.1 1114.6 24.8 1098.3 20.4 1092.1 18.4 1077.6 20.6 1074.7 18.6 1062.6 20.6 1066.8 25.2 1076.7 30.3" style="fill:#2083c4"/><polygon points="1120.5 22 1133.6 21.3 1139.3 18.2 1129.9 16.4 1118 15 1113.9 16.6 1106.9 15.3 1093.3 16.8 1106.7 21 1120.5 22" style="fill:#2083c4"/><polygon points="2226.4 963.7 2218.5 960.3 2221.5 953.9 2219.8 951.6 2216.1 957.4 2216.7 948.5 2219.2 941 2215.1 938.8 2214 934.1 2211.1 934.8 2211.6 948.2 2210.9 958.9 2202.2 970.8 2195.3 973.7 2193 976.7 2197.9 980 2196.8 984.5 2187.8 991.2 2189.2 994.5 2196.9 991.3 2212.5 979.8 2223.1 973.9 2235.2 961.5 2232.4 960.5 2226.4 963.7" style="fill:#2083c4"/><polygon points="2179.1 988.3 2180.2 984.8 2172.7 988.6 2156.4 1001.2 2149.1 1005.4 2127.3 1014.2 2112.5 1022.1 2104.1 1028.1 2102.8 1031.1 2109.4 1031.7 2111.4 1034.4 2117.3 1034.6 2130.7 1028.7 2147.4 1015.3 2155.6 1012.3 2160.8 1012.2 2161.6 1008.3 2182.3 995.4 2185.7 988.6 2178.4 991.9 2179.1 988.3" style="fill:#2083c4"/><polygon points="1416.4 432.8 1416.7 429.4 1415.7 428.7 1414 431.5 1416.4 432.8" style="fill:#2083c4"/><path d="M422.5,588l6.6-2.7-3.3-4.5,10.3-7.5,3.5,2.3,2.5,10,2.3,2.4,3.4-3.4,1.5-2.5-.5-6.1-2.4-2.3-13.2-5.5-2.6,2.5-16.9,2.6.2-1.8-2.5-3v.1l-3.1-3.6-2.6-3.3-1.6-4.4.2-.2-1.2-1.4,3.3-10.9.5-9.5,3.1-11.1.7-.8-.2.1-1.6-2.4-4.4-3.1-6.4-2.9-23,2.6-.7-.3-3.6,3.1h0l3.7-3.2-2-1.1-.8,1.2-2.2-1.5h0l1.7-2.8,3-2.5,1.6-9.2.7-5.9.1-1.2h.4l1.5-.1,1.6,2.1,9.9-21.5.8-4-12.3-1.3-13,4.1L360,487.8l-5,3.4-22.6,6.1-2.5-3.5-7.4-2.2-7.2-15L314,457.5l2.4-11.1,6.5-13.3h-.5l1-12.5,7.3-7.7,7.9-3.6,7.9-6.1,22-1.6,4.2,4.4,5.1.3,6.7-6.4,8-4.1,6,.9,8.2-1,3.9,2,14.1,1.8,5,11.5-2.6,5.5,5.1,16.8,6.3,6.6,2.3-1,4.6-13.9-.9-13.2-2.7-18.7,2.5-5.9,9.4-8.8,24.4-16.7,7.8-2.5,6-6.2-.5-12,2.2-14.8,3.7,6.6-3.7,5.8,9.4-9.7-.5-9.2,2.8,4.7,6.8-6.4,3.3-5.9,14.9-4.1-1.3-2-10.4,1.5,23.9-7.1-.8-4.3,8.3-10.8,7.8-2.4,16-6.7-.3-2.5,7.4-1,10.6-.3L578,279.1l-1.9,6.8,4.8.6,9.2-5.8,7.6-3.3,16-4.8,9.7-5.3-3.3-2.9,1.3-5.9-9.3,9.1-11.2,1.2-7.2-4,.7-14.9,7.9-5.5-4.3-4-9.9.8L572.2,248,558,258.7l-6,1.3,23.3-18.2,9.5-3.6,7.5-5.8,16.3-.5,13,1.7,11.2-1.3,10.2-6.6,11.4-2.8,11-5.8,2.6-8.9-5.9-4v-6.7l-3-2.5-9-2-10-8.9,4.5-4.9-7.4-25.9-15.2,12-10.6,4.3-2.1-4.5-4.8-1.2,2.9-9.6,3.4-6.4-10-.6-8.8-9.8-5.9,2L572,136.7l-5,1.7-4.9,11.7-1.4,6.9-11.4,8,4,5.8.6,6.6-2.2,5.2-6.2,5.4-9.7,5.5-11.7,3.7,2.2,4.1-2.9,12.5-7.3,8.2-6.1,2.6-5.7-7.6-.1-8.9,2.2-7.9,4.6-6.8-16.1-1.2-11-5.4-15.5-10-9.4,1.5,3-13.1-7.8-1.3,6.4-8.9,6.4-6,12.2-8.5,11.3-6.1,7.3-.9,3.8-4.8,6.7-3.1,8.4-.5,10-5,17.7-12.9,4.2,2.2,8.4-1.1,14.1-5,3.1-3.5L573,96l6.6-3.8,2.2-3.5-4.6-3.5L563,83.6l-6.1,7.7-8.4,6.1-9.4,5.2-1.7-4.8,5.6-5.2-2.9-4.5-11.5,5.5,5.7-7.2L525.6,85l7.5-3.4-.5-7.7-2.6-3-5.8-1.1-10.6,4.9-7.2,7.6,5.8,7.1L504,96.5l-4.2-.2-8.1,5.7,5.5-6.7-6.3-2.4-5.8,1.2L482,98.5l-17.1,1-6.8-3.2-6.5.6-1.9-3.8-14.5-.7-5.7,2.4,2.7,3-9.2,3.6-1.8-4.3-5.8,1.2-15.4.8-8.3-1.5,11-3.5L399,90.5l-21.6-3.3-5-2.9-6-.4-12,3.2,5.2-5.3-12.3,4.7-1.8-6.2L332,84.4l-.3-2.9-22.2,4.8-6.9-.9-17.2,5.1-9.1-4-7.8-1.7L237,111.3,264.2,84l-5.3-2.1-20.6-.4-8.1-2.2-12.7-.5,2.5-1.6-17.5-3.6-13.4,3.6-4.1-.5-30.9,7.1-6.2,3.4-11.3,3.2-9.8.2-8.3,3.7,4.1,8.8,3,2.7-1.5,4.5-12,.3,5.6-3.6h-4.5l-29,6.6-.3,7.2,5.9,1.8,9-.8,2.3,1.6,15.3-3.3-7.8,2.8-1.8,4.7-10.5,1.7-9.1,3.6-7.7-.6L55,144.6l.5,3.2-5.2,4.3,2.5,5.4,9.4-1.5-8.5,10,13.1-3.1,2.1,5,16.2-3.8L69.6,174.5l-23.8,8.9-6.4,3.2-8.5.9L.4,197.9,0,199.2,12.9,197l24.9-7.5,3.5.6L52,186.8l5.8-3.7,13.7-4,5.2-3.4,18.4-5.6,11.6-5.5-.2-3.7,14.5-5.4,9.6-5,12.1-4.2-.5,1.9-8.8,2.3-10.9,7.4-4.1,4.5,28.6-6.3,4.5-5.3,8.2-1.6,11.2,6.7,8.8-.6,11.6,4.2,4.3,7.9,4.8,2.2,14.5.7-3.5,7.3,2.1,6.3-4.3,6.8,4.1,5.4,6.6-3.8,4.3-4.9h0l-4.1,4.9-6.6,3.8-3.3,4,2.7,5.7-4,6.4,5.3,3.4-4.6,4.9-1.8,7.1,9.1,3.3,9.1,11.4H404.3l19.2,7,5.7-1.1,15.9-.3.2.1-15.9.3-5.7,1.1-19.2-7H227l-2.1,6.6-6.1,8.8,1.3-7.7-7.6-2.8-4.7,12.3-5.5,10.9L185,292.7l-1.4,6.2-8.8,13.7,1.3,4.5-2.4,6.8,2.6,11.8.6,11.8,3.2,8.5,14.4,12.9,2.7,4.8-.4,4.2h.1l.2,7.3,2.9,17.2,7.2,8.2-4.8,6.8-.6,5,13.1,9.4-1.5,10.6,11.4,10.9,1,5,1.2-12-3.4-.3-2.5-19.7-5.8-9.3-2.9-10.6-3.5-5.7.1-13.6,2.3-3.4,9.7,5.2-.6,9.5,6.6,17.3,3.6.7.3,5.8,6.4,6-2.3,5.1,6.3,5.4,2.4,5.2,6,6.5,8.5,19.5-2.1,7.4-2.5.8,3.9,9.3,7,4.7,2.4,3.8,7,2.6,40.3,19.3,10-3.9,13.2,4.3,6.9,8.6v.2l3.6,3.4,3.2,1.6,4.5.2,3.6,1.4-.1.3,1.9,1.8,4,.5,9.6,2.6.9-1.9,2.1.7,1,2.6,4.4-2.3.2-4.1h.2l-.2,4-4.4,2.3-.6.6h-2l7.6,9.2,3.2,3.4,2.3,2.6,13,3-.1.1-13.1-3-1.8,1.6,2,1.2-.5,6.8,6.9.2.3,2.4,7.8,9.7,3.9,1.8v-.1l.8,1.3.3-1.8,12.7,3.9ZM554.6,267.3l4.2-6.3,7.1-6.1h.1l-7,6-4.2,6.3-10.4,7.3h-.1Zm-32.5,7.4h0l-16.7,10.9h0Zm-33,12.3.2-.1-.3,4.8-.2.1ZM200.6,159.2l-.6-2.6.6,2.6.3,4.7Zm19.6,14.4-1.9,8.8h0l1.9-8.8,1.4-5.5-2.2-3.5,2.2,3.5Zm35.5,214.1h0l1-3.3h.1Zm30.4,19.6h0l6.1-6.4h0Zm79,120.9-1.8.5-3.9,4,.1-.3,3.9-4,1.7-.2Zm25.3,4.8h0l10.3-6.4h.1Z" style="fill:#2083c4"/><polygon points="1929.5 546.9 1927.1 543.8 1920.1 543.6 1925.7 553.1 1921.3 552.4 1926.1 563.7 1929.4 561.8 1926.7 553.9 1932.6 556.1 1929.5 546.9" style="fill:#2083c4"/><polygon points="1938.6 595.8 1940.6 588.2 1938.8 578.1 1937.1 570.9 1930.8 567 1931.8 573.4 1926.7 573.6 1925.8 577.3 1920.4 579.6 1917.5 575.8 1909.3 581.3 1906.9 588.3 1908.3 590.7 1918.9 582.9 1923.8 586.8 1921.8 590.7 1924.2 596.7 1933.1 601.5 1935 597.6 1932.3 591.5 1935.4 587.3 1938.6 595.8" style="fill:#2083c4"/><polygon points="1911.9 557.6 1908.7 567.3 1913.7 573 1920 562.6 1919.9 554.7 1915.3 562.7 1915.9 557.1 1911.9 557.6" style="fill:#2083c4"/><polygon points="1905.4 561.3 1909.8 558.8 1912.6 551.8 1903.3 549.2 1905.4 561.3" style="fill:#2083c4"/><polygon points="1880.7 570.6 1888.5 560.3 1886.5 553.5 1883.5 561.8 1871.6 578.5 1880.7 570.6" style="fill:#2083c4"/><polygon points="1898.5 546.6 1899.6 539.4 1896.7 536.4 1890.4 536.1 1898.5 546.6" style="fill:#2083c4"/><polygon points="1899.9 529.2 1897.3 522.6 1897.4 515.9 1901.2 513.1 1902 506.2 1891.2 494.3 1886.8 494.3 1885.7 501.8 1887.1 514.8 1883.8 512.1 1891.2 528.4 1892.3 532.9 1896.2 534.7 1902.7 533.5 1908 538.5 1909.5 535.5 1912.7 539.9 1918.9 544 1916.7 533.7 1907 529.1 1899.9 529.2" style="fill:#2083c4"/><polygon points="2133.5 682.7 2134.6 687.6 2137 685.4 2131 674.9 2121.7 668.8 2119.6 670.8 2124.8 673.2 2133.5 682.7" style="fill:#2083c4"/><polygon points="2155.7 704.6 2146.7 690.6 2147.8 696.9 2155.7 704.6" style="fill:#2083c4"/><polygon points="2047.5 696.7 2045.5 723.8 2053 724.1 2057 725.5 2063 722.6 2062.6 716.5 2073.7 711.4 2082.9 715 2089.7 726.8 2094.8 732.1 2108.2 734.3 2109.7 736.5 2115.7 733.5 2105.9 723.3 2101.7 723.6 2097.8 714.8 2091.7 709.4 2090.5 703.9 2097.3 703 2095.8 698.6 2083.9 693.5 2083.1 688.6 2074.5 680.2 2061.2 675.4 2048.8 669.6 2047.5 696.7" style="fill:#2083c4"/><polygon points="2114.8 700.5 2124.2 694.2 2128 693.5 2130.8 688.4 2125.4 682.6 2125.9 687.5 2119.4 693.3 2108.3 694.4 2101.8 693.2 2110.9 700.5 2114.8 700.5" style="fill:#2083c4"/><polygon points="528.8 499 538.5 498.8 540.5 496.7 535.7 494.2 528.7 495.4 528.8 499" style="fill:#2083c4"/><polygon points="1903.6 218.7 1913.8 226.6 1922.1 237.4 1925.3 243.5 1937.5 260.2 1943.5 267 1943.3 260.7 1951.7 265.6 1947.8 259.9 1935.5 251.6 1930.7 239.9 1942.2 242.6 1924.6 228.2 1915.2 220.1 1908.6 212.3 1893.3 199.5 1897.3 204.3 1894.8 207.9 1903.6 218.7" style="fill:#2083c4"/><polygon points="1946.4 72.5 1944.6 75.3 1954.3 77.2 1946.4 72.5" style="fill:#2083c4"/><polygon points="1748 50.8 1756.9 51.4 1758.3 48.8 1732.3 46.1 1734.6 48.2 1748 50.8" style="fill:#2083c4"/><polygon points="1722.5 57.4 1734.4 61.1 1742 61.1 1727.9 56.8 1722.5 57.4" style="fill:#2083c4"/><polygon points="1507.4 28.6 1505.5 26.2 1482.3 23.1 1484 30.9 1507.4 28.6" style="fill:#2083c4"/><polygon points="1704.9 51.8 1710.8 50.3 1729.3 50.5 1725.4 45.7 1702.1 42.3 1688.8 42 1684.3 43.2 1688.6 47.6 1704.9 51.8" style="fill:#2083c4"/><polygon points="1444.2 21.9 1454.6 24.1 1469.7 25.8 1478.9 25.1 1473.1 19.9 1455.4 14.5 1443 11.8 1434.9 13 1428 16.7 1435.6 17.8 1444.2 21.9" style="fill:#2083c4"/><polygon points="1239.2 13.6 1227.2 15.6 1225.7 17.3 1245.6 15.6 1239.2 13.6" style="fill:#2083c4"/><polygon points="1281.9 72.9 1292.2 74.7 1295.1 77.7 1315.4 78 1302.5 72.4 1298.4 66.8 1306.3 53.9 1317.6 47.7 1345.1 41.5 1346.7 39.5 1341.3 37 1332.6 37.8 1326.2 40.1 1311 41.3 1289 48.8 1292.2 51.8 1283.6 57.6 1288.7 58.4 1281.7 64.1 1283.8 67.8 1279.3 69.2 1281.9 72.9" style="fill:#2083c4"/><polygon points="92.6 74.2 88.4 72.3 75 77.2 82.5 76.8 92.6 74.2" style="fill:#2083c4"/><polygon points="21.1 112.2 30.2 110.5 24.4 115.7 36 115.9 32.8 119.1 37.2 121.2 47.2 122.5 57.2 115.4 67.3 114.6 77.2 111.4 76 104.7 62.7 103.6 56.4 108.8 55.4 107.1 62.4 102.6 58.8 95.5 54 90.2 11 118.7 18.6 115.6 21.1 112.2" style="fill:#2083c4"/><polygon points="2195.9 727.7 2191.5 717.1 2190 722.1 2194.6 729.3 2195.9 727.7" style="fill:#2083c4"/><polygon points="2194.8 737.9 2199.9 738 2198.3 735.1 2192.7 732.8 2194.8 737.9" style="fill:#2083c4"/><polygon points="2183.8 717.2 2173.5 708.7 2172.3 709.5 2183.9 718.8 2183.8 717.2" style="fill:#2083c4"/><polygon points="2181 728.1 2189.6 730 2181.8 724.8 2181 728.1" style="fill:#2083c4"/><polygon points="2160.7 702.8 2160.2 704.2 2167.5 709 2160.7 702.8" style="fill:#2083c4"/><polygon points="1935.1 723.6 1945.9 717.7 1935.7 718 1929.3 719.9 1928.3 721.9 1928.9 723.5 1928.8 726 1935.1 723.6" style="fill:#2083c4"/><polygon points="569.6 564 570.2 557.8 564.4 558.6 564.4 561.9 569.6 564" style="fill:#2083c4"/><polygon points="1876.7 458.5 1881.8 465.5 1885.2 445.3 1885.3 440.3 1881.5 437.8 1877.2 444.1 1874.7 452.3 1876.7 458.5" style="fill:#2083c4"/><polygon points="43.5 156.6 42.7 153 35.3 154.3 43.5 156.6" style="fill:#2083c4"/><polygon points="85 181 94.1 178 103.2 174.3 103.2 171.9 87 175.3 85 181" style="fill:#2083c4"/><polygon points="49.8 133.5 56.2 131.9 51.4 128.1 45.2 127.5 41.6 130.9 47.2 130.5 49.8 133.5" style="fill:#2083c4"/><polygon points="2228.7 772 2225.7 769.4 2224.6 775.8 2228.5 778.7 2228.7 772" style="fill:#2083c4"/></svg>